<svg preserveAspectRatio="none" width="100%" height="100%" overflow="visible" style="display: block;" viewBox="0 0 158.333 166.667" fill="none" xmlns="http://www.w3.org/2000/svg">
<g id="Setting">
<path id="Setting_2" d="M85.1433 0C91.4454 2.85044e-06 97.1515 3.50033 100.302 8.66699C101.835 11.1669 102.857 14.2501 102.601 17.5C102.431 19.9999 103.198 22.4998 104.56 24.833C108.904 31.9163 118.527 34.5829 126.021 30.583C134.452 25.7497 145.099 28.667 149.953 36.917L155.658 46.75C160.597 55 157.872 65.583 149.356 70.333C142.117 74.583 139.563 84.0003 143.906 91.167C145.269 93.4169 146.802 95.3334 149.186 96.5C152.167 98.0832 154.466 100.583 156.084 103.083C159.235 108.25 158.98 114.584 155.914 120.167L149.953 130.167C146.802 135.5 140.925 138.833 134.879 138.833C131.898 138.833 128.577 138 125.851 136.333C123.637 134.916 121.082 134.417 118.357 134.417C109.926 134.417 102.857 141.333 102.601 149.583C102.601 159.166 94.767 166.667 84.9734 166.667H73.3904C63.5117 166.667 55.6765 159.166 55.6765 149.583C55.506 141.333 48.4376 134.417 40.0066 134.417C37.1964 134.417 34.6414 134.916 32.5125 136.333C29.7872 138 26.3807 138.833 23.4851 138.833C17.3535 138.833 11.477 135.5 8.32593 130.167L2.44995 120.167C-0.701081 114.75 -0.871002 108.25 2.28003 103.083C3.64269 100.583 6.19719 98.0832 9.09253 96.5C11.477 95.3334 13.0101 93.4169 14.4578 91.167C18.7159 84.0003 16.1614 74.583 8.92261 70.333C0.491517 65.583 -2.23429 55 2.61988 46.75L8.32593 36.917C13.2654 28.667 23.8262 25.7497 32.3425 30.583C39.7517 34.5829 49.3752 31.9163 53.7185 24.833C55.081 22.4998 55.8468 19.9999 55.6765 17.5C55.5062 14.2501 56.4433 11.1669 58.0613 8.66699C61.2123 3.50033 66.9186 0.166667 73.1355 0H85.1433ZM79.2673 59.833C65.8967 59.833 55.0808 70.3337 55.0808 83.417C55.081 96.5002 65.8968 106.917 79.2673 106.917C92.6377 106.917 103.198 96.5001 103.198 83.417C103.198 70.3337 92.6378 59.8332 79.2673 59.833Z" fill="var(--fill-0, white)"/>
</g>
</svg>
